<svg id="OBJECTS" xmlns="http://www.w3.org/2000/svg" viewBox="0 0 421.38 355.64"><path d="M411.25,180.79c-9-34.79-41.66-32.63-72.64-26.17-16.66,3.47-40,8.28-64.35,1.18-52.42-15.27-112.69-19.09-142.39,0s-47.55,42.09-39,74.23,30.32,61,11.82,78.22-18.19,82.33,57.89,87.4,68.54-67.94,118.79-64.55,153.39,52.82,157.75,17-51.6-61.39-31.54-120.9C411.57,215.37,415.34,196.7,411.25,180.79Z" transform="translate(-36.2 -58.67)" fill="#2c2a40" opacity="0.1"/><path d="M236.29,123.85s2-12.48,7.42-12c1.51.13,2.54,1.67,3.22,3.32a1.15,1.15,0,0,0,2.17-.11c1.44-5.07,4.41-12.81,9-12.81,4.75,0,4.91,8.85,4.56,14.24a.8.8,0,0,0,1.46.5c1.25-1.84,3.08-3.61,5.3-3.09,4.33,1,3.16,9.94,3.16,9.94Z" transform="translate(-36.2 -58.67)" fill="#2c2a40" opacity="0.1"/><path d="M36.2,241.2s1.94-12.48,7.41-12c1.52.13,2.55,1.67,3.22,3.32a1.15,1.15,0,0,0,2.17-.12c1.45-5.07,4.41-12.81,9-12.81,4.75,0,4.9,8.86,4.56,14.25a.8.8,0,0,0,1.46.5c1.25-1.84,3.07-3.61,5.3-3.1,4.32,1,3.16,9.95,3.16,9.95Z" transform="translate(-36.2 -58.67)" fill="#2c2a40" opacity="0.1"/><path d="M421.16,191.35s1.95-12.48,7.42-12c1.51.14,2.54,1.67,3.22,3.32a1.15,1.15,0,0,0,2.17-.11c1.45-5.07,4.41-12.81,9-12.81,4.75,0,4.91,8.86,4.56,14.25a.8.8,0,0,0,1.46.5c1.25-1.84,3.08-3.61,5.3-3.1,4.33,1,3.16,9.95,3.16,9.95Z" transform="translate(-36.2 -58.67)" fill="#2c2a40" opacity="0.1"/><path d="M305.59,223.67a51.44,51.44,0,0,1-13.94,8.09s-4.72,3-10.76,6.39h0c-7.12,4-12.61,6.74-17.85,8.16a84.86,84.86,0,0,0-11.3,4l-1,.46h0c-2.93,1.32-4.69,2.3-4.69,2.3l-3.67-8.66s6.68-6.64,10.63-9.9c4.88-4.05,13.75-12.76,24.13-16.52h0a18.24,18.24,0,0,1,2.38-.69,166,166,0,0,1,14.46-9,18.2,18.2,0,0,1,4.95-2S308.67,215.25,305.59,223.67Z" transform="translate(-36.2 -58.67)" fill="#f9b587"/><path d="M282.61,222.22s-3.48-3.86-5.51-4.25h0a18.24,18.24,0,0,1,2.38-.69S282.3,220.12,282.61,222.22Z" transform="translate(-36.2 -58.67)" fill="#f39568"/><path d="M305.59,223.67a51.44,51.44,0,0,1-13.94,8.09s-4.72,3-10.76,6.39c4.2-3,10.84-9.36,15.94-13.71,3.48-3,1.56-6.78.15-10.34-.59-1.48-2.12-4-2.84-5.74,0-.07-.14-.07-.2-.11a18.2,18.2,0,0,1,4.95-2S308.67,215.25,305.59,223.67Z" transform="translate(-36.2 -58.67)" fill="#f39568"/><path d="M250.35,247.46l1.11,10.43a3.47,3.47,0,0,1-1.11,2.94l-6.08,5.56a1.77,1.77,0,0,1-2.51-.12h0a1.76,1.76,0,0,1-.16-2.19l4.52-6.62-.78-2-2.64,4-2.12,3.95-1.08,6.14a1.58,1.58,0,0,1-1.91,1.28h0a1.6,1.6,0,0,1-1.24-1.68l.61-7.38.88-5.37L235.66,262,233.28,271a1.53,1.53,0,0,1-1.28,1.12h0a1.52,1.52,0,0,1-1.72-1.6l.48-8,1.62-5.73-4.75,8-2.58,5.61a1.37,1.37,0,0,1-1.64.74h0a1.36,1.36,0,0,1-.92-1.71l2-6.61,3.37-6.47-3.28,5.15-.88,2a.84.84,0,0,1-1.1.43h0a.83.83,0,0,1-.48-.95l.52-2.3,2.28-4.76,17.51-11.61S245.36,243.38,250.35,247.46Z" transform="translate(-36.2 -58.67)" fill="#f9b587"/><path d="M251.54,250.38l-.84.37h0s-.27-1.38-2.41-3.15A6.82,6.82,0,0,1,251.54,250.38Z" transform="translate(-36.2 -58.67)" fill="#f39568"/><path d="M412.66,229.66a3.53,3.53,0,0,1-2,1.5c.69,10.62.45,19.73-1.15,23.84-4.92,12.66-46.79,18.85-56.86,9.66s-15.55-69.89-2-79.47c10.13-7.15,31.38-8.32,41.51-8.45a10.29,10.29,0,0,1,9.68,6.4c2.54,6.29,4.81,16.27,6.45,26.89a6.25,6.25,0,0,1,1.87.33C412.29,211.11,413.65,227.72,412.66,229.66Z" transform="translate(-36.2 -58.67)" fill="#2c2a40"/><path d="M335.81,354.94a12.26,12.26,0,0,0,2.14,4.42s-4.44,1.79-8.55,3.47c-3.14,1.28-8.27,2-11.59,3.31a9.44,9.44,0,0,0-2.09,1.06,4.16,4.16,0,0,0-.39.32c-1.83,1.71-11.46,5.74-14.5,6.46a3.13,3.13,0,0,1-.71.12,3.48,3.48,0,0,1-3-1.64h0c-.69-1.12-1-2.92-.25-5.73s3-6,5.31-8.78a36.7,36.7,0,0,1,9.92-8.4c3.54-2.07,8-4.76,8.87-5.72,2.78-3.05,5.26-6.57,9.21-8.14a9.47,9.47,0,0,1,3.64-.45A41.19,41.19,0,0,1,343.1,337S333.59,345.9,335.81,354.94Z" transform="translate(-36.2 -58.67)" fill="#b0b1ca"/><path d="M333.86,335.24c-1.91,1.38-4.95,3.8-6.2,6-1.88,3.34-9.28,6.79-12.49,8.89s-15.56,11.76-16.78,17.06c-1.05,4.61,1.07,6.36,2.43,6.8a3.45,3.45,0,0,1-.7.11c-1.73,0-4.77-1.42-3.21-7.37.72-2.73,3-6,5.31-8.78a36.7,36.7,0,0,1,9.92-8.4c3.54-2.07,8-4.76,8.87-5.72,2.78-3.05,5.26-6.57,9.21-8.14A9.47,9.47,0,0,1,333.86,335.24Z" transform="translate(-36.2 -58.67)" fill="#2c2a40"/><path d="M338,359.36s-4.44,1.79-8.55,3.47c-3.14,1.28-8.27,2-11.59,3.31a9.44,9.44,0,0,0-2.09,1.06,4.16,4.16,0,0,0-.39.32c-1.83,1.71-11.46,5.74-14.5,6.46a3.13,3.13,0,0,1-.71.12,3.48,3.48,0,0,1-3-1.64h0s6.29-1.39,9.56-3.49c2.11-1.35,5-3.54,7.76-5a33.45,33.45,0,0,0-2.93-4.59,27.2,27.2,0,0,1,4.25,3.94,10,10,0,0,1,3-.87c3.23-.3,13.4-3.67,17-7.49A12.26,12.26,0,0,0,338,359.36Z" transform="translate(-36.2 -58.67)" fill="#2c2a40" opacity="0.2"/><path d="M314.23,326.14c-.08,4.94,1,9,.77,10.71-.32,3.12-5.59,9.37-5.59,9.37-.39,3.57-3.23,8.62-7,11.3h0l-.05,0-.13.08A8,8,0,0,1,295,359a7.39,7.39,0,0,1-.84-.34c-4.85-2.34-6.35-19.05,0-25.74,6.12-6.46,8.71-19.74,14.8-21.22s9.21,1.15,9.21,1.15c-.16.24-.31.48-.46.73A24.46,24.46,0,0,0,314.23,326.14Z" transform="translate(-36.2 -58.67)" fill="#b0b1ca"/><path d="M318.13,312.83c-.16.24-.31.48-.46.73-.58-.22-6.35-2.25-9.9,0C304,316,301.93,325,300,327.47s-8.15,11.51-8.31,15-1,12.25,2.38,14.8c3.19,2.41,7,1,8.19.32-2.46,1.68-5.29,2.35-8.1,1-4.85-2.33-6.35-19.05,0-25.74,6.12-6.46,8.71-19.74,14.8-21.22S318.13,312.83,318.13,312.83Z" transform="translate(-36.2 -58.67)" fill="#2c2a40"/><path d="M315,336.85c-.3,2.88-4.79,8.41-5.49,9.26l-.06.07,0,0c-.39,3.57-3.23,8.62-7,11.3h0l-.05,0-.13.08A8,8,0,0,1,295,359a6.14,6.14,0,0,1,1.52-.5c4.31-.88,8-6.85,8.84-10.13a11.44,11.44,0,0,1,2-3.49,11.9,11.9,0,0,0-5-1.81s2-.71,5.62.93c2.22-2.82,5-5.78,5.35-7.13.5-2.14.92-10.71.92-10.71C314.15,331.08,315.19,335.14,315,336.85Z" transform="translate(-36.2 -58.67)" fill="#2c2a40" opacity="0.2"/><path d="M440.49,154.75l-12.34,6.87-12.45,6.94s-5-11.35-.54-18.38c0,0,1-.61,2.58-1.41,1.12-.59,2.5-1.29,3.92-1.92.81-.36,1.63-.7,2.42-1a80.06,80.06,0,0,1,3.33-8.71,9.84,9.84,0,0,0,1.14-5.14,2.92,2.92,0,0,0-.4-1.32,63.71,63.71,0,0,0,10.12-6.36S446.16,142.41,440.49,154.75Z" transform="translate(-36.2 -58.67)" fill="#f9b587"/><path d="M430.37,150.84a8.32,8.32,0,0,1-8.71-4c.81-.36,1.63-.7,2.42-1C424.08,145.86,426.51,150.18,430.37,150.84Z" transform="translate(-36.2 -58.67)" fill="#f39568"/><path d="M428.15,161.62l-12.45,6.94s-5-11.35-.54-18.38c0,0,1-.61,2.58-1.41,0,0,.13,9.64,1.45,12S425,162.37,428.15,161.62Z" transform="translate(-36.2 -58.67)" fill="#f39568"/><path d="M438.27,124.33a64.48,64.48,0,0,1-8.93,6.74c-.33.16-.79,0-1.24-.37a13.37,13.37,0,0,1-4.94-.58c-.88-.4-.86-1.64-.64-3-2.1-.51-6.2-3.72-6.15-6.78.07-3.33,3.64-3.57,3.64-3.57a3.07,3.07,0,0,1,3.7-3.21c.19-1.67,3.21-2.41,3.21-2.41.31-1.41,2.28-1.66,3.45-1.11s8.15,8.64,8.45,10.12A10.8,10.8,0,0,1,438.27,124.33Z" transform="translate(-36.2 -58.67)" fill="#f9b587"/><path d="M427.92,125.33c.51,1.91-1.1,2.16-1.1,2.16.32-.25.3-1.07.21-1.77a4.79,4.79,0,0,0-.19-1h0a2.67,2.67,0,0,0-1.39-1.72c-1.44-.64-2.1-.2-2.1-.2l-2.86-3.89a21.26,21.26,0,0,1,3.45,3,3.72,3.72,0,0,1,3.83,2.81,1.31,1.31,0,0,0,1.26-1,3.6,3.6,0,0,0-.53-2.73l-4-5.28s5.42,5.05,5.55,7A2.18,2.18,0,0,1,427.92,125.33Z" transform="translate(-36.2 -58.67)" fill="#f39568"/><path d="M428.49,114s3.55,4.24,4,5.4a2.08,2.08,0,0,1-1.21,2.77,1.58,1.58,0,0,1-1.45-.22v1.33s3.59.56,3.55-2.85C433.38,118.77,428.49,114,428.49,114Z" transform="translate(-36.2 -58.67)" fill="#f39568"/><path d="M433.18,119.69a2.06,2.06,0,0,0,1.91.49c1.05-.34,1.27-1.05,1-1.7a1.24,1.24,0,0,1,.09,1.54c-.71,1.2-2.47,1-3,.84Z" transform="translate(-36.2 -58.67)" fill="#f39568"/><path d="M432.51,130.12a4.06,4.06,0,0,1-4,1.89,2.92,2.92,0,0,0-.4-1.32A12,12,0,0,0,432.51,130.12Z" transform="translate(-36.2 -58.67)" fill="#f39568"/><path d="M391.47,291.17s-3.62-7.95-3-12.46,6.77,2.59,7.57,4.5S395.75,290.38,391.47,291.17Z" transform="translate(-36.2 -58.67)" fill="#6c8c31"/><path d="M345.46,337.57A30.62,30.62,0,0,1,335,340.15a22,22,0,0,1,7.17-3.3A20.08,20.08,0,0,1,345.46,337.57Z" transform="translate(-36.2 -58.67)" fill="#2c2a40"/><path d="M359.57,312.76c-.7,3.06.15,6.91-2.14,13.89-1.56,4.77-6.54,8.57-12,10.92,4.87,1.41,10.08,2.58,10.08,2.58,8.49-.3,24.51,3.19,24.51,3.19A81.57,81.57,0,0,1,359.57,312.76Z" transform="translate(-36.2 -58.67)" fill="none"/><path d="M416.15,355.43c-.66-14.31-24.21-50.74-27.88-78.37l-14.76-5.32c-2-.57-1.1-.24-3.41-.93,0,0-34.87-18-50.49,5.68a26.75,26.75,0,0,0,2.79,17.27c2,3.69,3.46,15.13,2,17.43a29.19,29.19,0,0,0-6.25,1.64c-2.62.91-6.66,2.56-9.4,3.7a11.9,11.9,0,0,0-7,8,11,11,0,0,0,.29,6.41c2.63,7.56,9.21,8.38,13.49,7.72A109.58,109.58,0,0,1,331.94,340a14.53,14.53,0,0,0,3,.18,10.43,10.43,0,0,0-4.34,6.23c-1.48,7.24,5.52,12.5,5.52,12.5s.73,1.48,6.32,1.16,5.58-1.83,10.2,0,37,15.25,47.69,15.74S416.81,369.74,416.15,355.43Zm-60.61-15.28s-5.21-1.17-10.08-2.58c5.43-2.35,10.41-6.15,12-10.92,2.29-7,1.44-10.83,2.14-13.89a81.57,81.57,0,0,0,20.48,30.58S364,339.85,355.54,340.15Z" transform="translate(-36.2 -58.67)" fill="#2c2a40"/><path d="M319.39,316.23l-1.53.32.16.74,1.52-.32,1.51-.32-.15-.73Z" transform="translate(-36.2 -58.67)" fill="#5b5b6c"/><path d="M304,321.51l.37.66c.89-.5,1.8-1,2.72-1.47l-.35-.66C305.78,320.51,304.86,321,304,321.51Z" transform="translate(-36.2 -58.67)" fill="#5b5b6c"/><path d="M313.06,317.67l.19.73c.88-.24,1.87-.47,3-.73l-.16-.73C314.94,317.19,314,317.43,313.06,317.67Z" transform="translate(-36.2 -58.67)" fill="#5b5b6c"/><path d="M329.18,305.45l.76-.05c-.06-1-.16-2.07-.3-3.11l-.75.1C329,303.41,329.12,304.44,329.18,305.45Z" transform="translate(-36.2 -58.67)" fill="#5b5b6c"/><path d="M323,274.23l-.76-.05c-.06,1.05-.11,2.1-.12,3.11l.75,0C322.87,276.3,322.91,275.27,323,274.23Z" transform="translate(-36.2 -58.67)" fill="#5b5b6c"/><path d="M328.62,300.62l.74-.13c-.19-1.07-.42-2.1-.68-3.06l-.73.2C328.21,298.57,328.43,299.58,328.62,300.62Z" transform="translate(-36.2 -58.67)" fill="#5b5b6c"/><path d="M308.35,319.23l.3.69a25.88,25.88,0,0,1,2.87-1l-.22-.73A28.64,28.64,0,0,0,308.35,319.23Z" transform="translate(-36.2 -58.67)" fill="#5b5b6c"/><path d="M328.32,313.38a2.83,2.83,0,0,1-1.05.75l.33.68a3.45,3.45,0,0,0,1.32-1,4.5,4.5,0,0,0,.66-1.63l-.74-.17A4,4,0,0,1,328.32,313.38Z" transform="translate(-36.2 -58.67)" fill="#5b5b6c"/><path d="M328.14,295.68a19.73,19.73,0,0,0-1.24-2.91l-.66.36a20.89,20.89,0,0,1,1.19,2.79Z" transform="translate(-36.2 -58.67)" fill="#5b5b6c"/><path d="M322.86,279.1l-.76,0c0,1.08.08,2.13.17,3.12l.75-.07C322.93,281.2,322.88,280.17,322.86,279.1Z" transform="translate(-36.2 -58.67)" fill="#5b5b6c"/><path d="M330,307.23h-.76c0,.11,0,.22,0,.33,0,1-.05,1.9-.13,2.72l.75.08a26.55,26.55,0,0,0,.13-2.79Z" transform="translate(-36.2 -58.67)" fill="#5b5b6c"/><path d="M323.85,286.93a24.92,24.92,0,0,1-.62-3l-.75.11a26,26,0,0,0,.64,3.08Z" transform="translate(-36.2 -58.67)" fill="#5b5b6c"/><path d="M324.42,288.6l-.7.29a10.69,10.69,0,0,0,1.41,2.51l.18.24.61-.45-.19-.25A9.8,9.8,0,0,1,324.42,288.6Z" transform="translate(-36.2 -58.67)" fill="#5b5b6c"/><path d="M322.66,315.53l.17.74c1.26-.29,2.23-.54,3-.79l-.23-.72C324.85,315,323.91,315.25,322.66,315.53Z" transform="translate(-36.2 -58.67)" fill="#5b5b6c"/><path d="M361.68,311.21l-.83-1.26.64-.41s.29.46.82,1.26Z" transform="translate(-36.2 -58.67)" fill="#5b5b6c"/><path d="M347.34,341c.8.19,1.75.43,2.91.74l.19-.73c-1.16-.31-2.12-.55-2.92-.74Z" transform="translate(-36.2 -58.67)" fill="#5b5b6c"/><path d="M342.77,339.58l-.09.75c.76.1,1.44.16,2,.19.21,0,.52.06.93.14l.14-.74a7,7,0,0,0-1-.15C344.18,339.74,343.52,339.68,342.77,339.58Z" transform="translate(-36.2 -58.67)" fill="#5b5b6c"/><path d="M351.94,342.23l2.9.8.2-.73-2.9-.8Z" transform="translate(-36.2 -58.67)" fill="#5b5b6c"/><rect x="357.7" y="342.04" width="0.76" height="3.01" transform="translate(-105.62 536.83) rotate(-74.33)" fill="#5b5b6c"/><path d="M361.11,344.79l2.9.8.2-.72-2.89-.81Z" transform="translate(-36.2 -58.67)" fill="#5b5b6c"/><path d="M373,326.53l-1.73-2.46-.62.43,1.73,2.47Z" transform="translate(-36.2 -58.67)" fill="#5b5b6c"/><path d="M387.59,345.39a7,7,0,0,0-1.59-2.71l-.57.49a6.6,6.6,0,0,1,1.43,2.41Z" transform="translate(-36.2 -58.67)" fill="#5b5b6c"/><path d="M375.78,330.39c-.58-.8-1.17-1.61-1.75-2.43l-.62.44c.59.82,1.18,1.64,1.77,2.44Z" transform="translate(-36.2 -58.67)" fill="#5b5b6c"/><path d="M338,339.27l-.05.26q1.59.32,3,.54l.12-.74-1.38-.24C339.12,339.16,338.57,339.22,338,339.27Z" transform="translate(-36.2 -58.67)" fill="#5b5b6c"/><path d="M362.64,312.68c.48.72,1,1.57,1.67,2.5l.63-.42c-.63-.93-1.19-1.78-1.67-2.5Z" transform="translate(-36.2 -58.67)" fill="#5b5b6c"/><path d="M380.79,348.63a7,7,0,0,1-1-.06l-.08.75a9.61,9.61,0,0,0,1,.06h.16c.7,0,1.36-.07,1.94-.13l-.08-.75C382.1,348.56,381.47,348.6,380.79,348.63Z" transform="translate(-36.2 -58.67)" fill="#5b5b6c"/><path d="M384.42,341a23.45,23.45,0,0,1-1.7-1.78l-.57.5c.65.73,1.24,1.35,1.75,1.83l.36.35.53-.54C384.67,341.25,384.54,341.14,384.42,341Z" transform="translate(-36.2 -58.67)" fill="#5b5b6c"/><path d="M381.58,337.91c-.58-.7-1.21-1.48-1.88-2.33l-.6.47c.68.85,1.31,1.64,1.9,2.34Z" transform="translate(-36.2 -58.67)" fill="#5b5b6c"/><path d="M376.22,332.25c.62.85,1.23,1.66,1.81,2.41l.6-.46-1.81-2.4Z" transform="translate(-36.2 -58.67)" fill="#5b5b6c"/><path d="M384.35,348.22l.18.73a4.35,4.35,0,0,0,2.79-1.58l-.63-.41A3.79,3.79,0,0,1,384.35,348.22Z" transform="translate(-36.2 -58.67)" fill="#5b5b6c"/><path d="M365.71,346.06l2.9.78.2-.73-2.9-.78Z" transform="translate(-36.2 -58.67)" fill="#5b5b6c"/><path d="M375,348.44c1.13.26,2.12.46,3,.62l.14-.75c-.83-.15-1.81-.35-2.93-.61Z" transform="translate(-36.2 -58.67)" fill="#5b5b6c"/><path d="M368,320.58l1.7,2.48.62-.43-1.7-2.47Z" transform="translate(-36.2 -58.67)" fill="#5b5b6c"/><path d="M367.59,318.71c-.58-.87-1.15-1.7-1.68-2.49l-.62.42,1.68,2.49Z" transform="translate(-36.2 -58.67)" fill="#5b5b6c"/><path d="M370.31,347.29l2.92.74.18-.73-2.91-.74Z" transform="translate(-36.2 -58.67)" fill="#5b5b6c"/><path d="M345.46,337.57A30.62,30.62,0,0,1,335,340.15a22,22,0,0,1,7.17-3.3A20.08,20.08,0,0,1,345.46,337.57Z" transform="translate(-36.2 -58.67)" fill="#2c2a40"/><path d="M416.94,170.41c-.05,4.76-.3,8.22-.3,8.22a28.27,28.27,0,0,0-2.81,1.24c-6.5,3.3-14.59,10.18-16.55,17.18-.79,2.79-1.15,8.55-1.29,15.06-.12,5.26-.08,11,0,16.09,0,.27,0,.55,0,.81.1,6.43.26,11.63.26,13.11,0,4.11-.82,16.28-1,21.54s1.32,10.85,2,19.74-5.77,7.77-5.77,7.77c6.25-2.63,3-10.11-1-11.72-.59-.24-1.28-.5-2.05-.77h0c-9.54-3.38-31.68-9.09-43-10.74-16.8-2.47-25.85,8.55-25.85,8.55s3.29-18.26,6.09-21.88,4.44-15.45,5.59-20.39a14.16,14.16,0,0,0,.27-2.45c.16-4.42-.81-11.36-1.37-15-.22-1.43-.38-2.33-.38-2.33-1.7,2.79-12.74,8.55-18.39,11.36-2,1-3.32,1.63-3.32,1.63l-4.69-7.11-9.29-14.11s.62-.56,2.54-2.08c1.37-1.07,3.4-2.63,6.34-4.83,7.07-5.26,15.46-14.8,18.58-16.28s3.62-1.31,7.73-5.26c2.89-2.77,13.35-6.12,19.35-7.88,2.55-.74,4.29-1.2,4.29-1.2a18.84,18.84,0,0,0,13.94-.95s2.19-1.44,5.15-3.23c4.81-2.92,11.66-6.78,14.5-7,3.61-.28,19.12-4.64,25.68-6.52l2.94-.85C416.74,156,417,164.28,416.94,170.41Z" transform="translate(-36.2 -58.67)" fill="#f9c248"/><path d="M359.44,176.25a11.1,11.1,0,0,1-10.78-6.32c2.55-.74,4.29-1.2,4.29-1.2a18.84,18.84,0,0,0,13.94-.95s2.19-1.44,5.15-3.23C372.9,171.78,367.43,175.85,359.44,176.25Z" transform="translate(-36.2 -58.67)" fill="#f9c248"/><path d="M311.42,225.85c-2,1-3.32,1.63-3.32,1.63l-14-21.22s.62-.56,2.54-2.08Z" transform="translate(-36.2 -58.67)" fill="#f9c248"/><path d="M416.64,178.63a28.27,28.27,0,0,0-2.81,1.24c1.23-11.94-.67-24-1.61-28.84l2.94-.85C418,160.54,416.64,178.63,416.64,178.63Z" transform="translate(-36.2 -58.67)" fill="#f9c248"/><path d="M396,228.2c-11.53-5-39.62-14.09-64.42,3.57.16-4.42-.81-11.36-1.37-15,3.76-2.38,21.82-13.17,39.09-12.64A55.91,55.91,0,0,1,396,212.11C395.87,217.37,395.91,223.12,396,228.2Z" transform="translate(-36.2 -58.67)" fill="#f9c248"/><path d="M340.37,129.15s-4.57-1-5.13,4.27c-.48,4.54,5.28,6.24,5.28,6.24S342.37,132,340.37,129.15Z" transform="translate(-36.2 -58.67)" fill="#2c2a40"/><path d="M342.62,136.84s-4.57-1-5.13,4.27c-.48,4.54,5.28,6.24,5.28,6.24S344.62,139.65,342.62,136.84Z" transform="translate(-36.2 -58.67)" fill="#2c2a40"/><path d="M339.61,130.22a8.45,8.45,0,0,1-4.78-10.8c2.48-8,11.94-4.82,11.94-4.82a6.48,6.48,0,0,1,6.6-5.87,8.87,8.87,0,0,1,8.51,4.7s4.22-4.19,9.36-2.94,6.88,7.5,5.28,10.45c0,0,3.27-.58,5.75,3.22s3.12,9.45,0,11.54a9.65,9.65,0,0,1,1.66,9.45,7.94,7.94,0,0,1-7.36,5.32s1,7.09-5.86,8.82-6.24-4.4-6.24-4.4S352.44,127.05,339.61,130.22Z" transform="translate(-36.2 -58.67)" fill="#2c2a40"/><path d="M368.34,162.11l1,4.88a3.24,3.24,0,0,1-1.26,3.27c-8.84,6.42-15.57,2-17-.17,1.07-1,20-19,20.35-29.06C371.44,141,373.62,153.59,368.34,162.11Z" transform="translate(-36.2 -58.67)" fill="#f9b587"/><path d="M340.11,143.76a13.5,13.5,0,0,0,.48,8.15l3.1,8a7.44,7.44,0,0,0,7.26,4.76,25.19,25.19,0,0,0,12.78-3.81c8-5.33,8-17.55,8-17.55s-.66-12.39-10.95-17.09-20.75.81-20.75.81l-1.2,8.67a11.81,11.81,0,0,0-.12,1.45,13.38,13.38,0,0,0,.75,4.81Z" transform="translate(-36.2 -58.67)" fill="#f9b587"/><path d="M348.49,134.61s5.78-5.65,9.77-.56l-.72,1.3s-4-3.5-8.68.88Z" transform="translate(-36.2 -58.67)" fill="#2c2a40"/><path d="M340.11,143.76a13.42,13.42,0,0,0-.37,4.41c1.24-.88,3.74-1.62,8.76-.93,0,0-2.69-2.19-5.38-2.24a1.08,1.08,0,0,1-1-1.41l1.51-4.6a3.15,3.15,0,0,0-1.69-1.27,20.32,20.32,0,0,0-3.2-.57,13.38,13.38,0,0,0,.75,4.81Z" transform="translate(-36.2 -58.67)" fill="#f39568"/><path d="M339,135.77a14.84,14.84,0,0,1,3.52.68l.18,1.5a10.29,10.29,0,0,0-3.69-.59.86.86,0,0,1-.93-.85h0A.82.82,0,0,1,339,135.77Z" transform="translate(-36.2 -58.67)" fill="#2c2a40"/><path d="M342.41,150.93l13.74-1.3s-1.57,7.42-8.88,7.23C341.53,156.71,342.41,150.93,342.41,150.93Z" transform="translate(-36.2 -58.67)" fill="#fff"/><path d="M351.77,164.42s8.52-1.06,13.1-12.92c0,0,2.12,4.37-.37,10.66s-13.41,7.93-13.41,7.93Z" transform="translate(-36.2 -58.67)" fill="#f39568"/><path d="M368.22,141.31s2.58-4.94,6.36-2.72,1.67,13.48-3.81,11.37S368.22,141.31,368.22,141.31Z" transform="translate(-36.2 -58.67)" fill="#f9b587"/><path d="M350.19,139s.81-2.45,3-2.46a3.7,3.7,0,0,1,3.82,2.69S353.9,134.91,350.19,139Z" transform="translate(-36.2 -58.67)" fill="#2c2a40"/><path d="M343,140.67s-2.21-2.62-3.52.56A2.47,2.47,0,0,1,343,140.67Z" transform="translate(-36.2 -58.67)" fill="#2c2a40"/><path d="M339.61,130.22a9.28,9.28,0,0,0,6.88-1.24c3.14-2.17,2.38-4.1,2.38-4.1s1.28,3.2,5.54,2.87,4.85-1.51,4.85-1.51-.18,4.77,3.3,5.49a5.82,5.82,0,0,0,5.59-2.09s-15.48-13.63-20.8-10S337.45,125.2,339.61,130.22Z" transform="translate(-36.2 -58.67)" fill="#2c2a40"/><path d="M366.32,130.3s-2.11,4.08,1.46,6.44a21.75,21.75,0,0,1-1.27,6.4l2.72,0s2-3.49,1.8-6.47S370.82,129.1,366.32,130.3Z" transform="translate(-36.2 -58.67)" fill="#2c2a40"/><path d="M438.27,124.33a5.73,5.73,0,0,1-1.52,2.21s1.52-.07,2-.94Z" transform="translate(-36.2 -58.67)" fill="#f39568"/><path d="M302.34,357.56l.05,0h0Z" transform="translate(-36.2 -58.67)" fill="#a5c723"/><path d="M388.43,278.68c-9.54-3.38-31.68-9.09-43-10.74-16.8-2.47-25.85,8.55-25.85,8.55s3.29-18.26,6.09-21.88,4.44-15.45,5.59-20.39a14.16,14.16,0,0,0,.27-2.45c.16-4.42-.81-11.36-1.37-15-.22-1.43-.38-2.33-.38-2.33-1.7,2.79-12.74,8.55-18.39,11.36-2,1-3.32,1.63-3.32,1.63l-4.69-7.11-.64-3.09s12.28-6.66,29.17-15.79c0,0,7.65,9.62,7.53,20.73-.21,19.75-3.05,33.22,9.19,37.82C360.51,264.5,386.8,277.84,388.43,278.68Z" transform="translate(-36.2 -58.67)" fill="#2c2a40" opacity="0.2"/><path d="M416.94,170.41c-.05,4.76-.3,8.22-.3,8.22a28.27,28.27,0,0,0-2.81,1.24c-6.5,3.3-14.59,10.18-16.55,17.18-.79,2.79-1.15,8.55-1.29,15.06-.12,5.26-.08,11,0,16.09,0,.27,0,.55,0,.81,0,0-4.35-29.66-1.88-38.37S416.5,170.66,416.94,170.41Z" transform="translate(-36.2 -58.67)" fill="#2c2a40" opacity="0.2"/><path d="M335.21,177.48c-3.59,21.38-2.94,46.71-2.94,46.71a21,21,0,0,1-1.47,12.3c-13.72-14.83-4.28-59,.82-67.93,6.26-11,15.43,1.85,15.43,1.85l-4.69,1.48s-1.62-2.29-3.64-1.8S335.21,177.48,335.21,177.48Z" transform="translate(-36.2 -58.67)" fill="#2c2a40"/><path d="M374,163.39s1.4-10.81,9.29-11.09c12.5-.43,15.65,32.42,16.64,50.18S396,223.82,396,223.82l-.15-10.12s-6.47-43.7-9.67-51.39c-3.51-8.43-6.52-4.27-9.68,0l-2.82,1.3" transform="translate(-36.2 -58.67)" fill="#2c2a40"/><path d="M100.78,152.17c-20.21-5.24-36-24.3-40.2-28.89a8.77,8.77,0,0,1-1.21-2h0c-4-8.32-10.48-35.64-11.92-41.83-.1-.42-.17-.74-.22-1s-.07-.3-.07-.3l11.49-5s.94,11,6.47,19.91,10.64,23,10.64,23c10.83,5.32,22.4,15.22,22.4,15.22C104.2,144,100.78,152.17,100.78,152.17Z" transform="translate(-36.2 -58.67)" fill="#f9b587"/><path d="M100.78,152.17c-20.21-5.24-36-24.3-40.2-28.89a8.77,8.77,0,0,1-1.21-2c.24.2,15.18,13,20.8,16.26s12.07,6.18,15.22,4,4-6.41,2.77-10.22C104.2,144,100.78,152.17,100.78,152.17Z" transform="translate(-36.2 -58.67)" fill="#f39568"/><path d="M47.86,78.79a64.78,64.78,0,0,0,10.91-2.5c.33-.15.47-.64.51-1.2A13.24,13.24,0,0,0,62,70.94c.26-.93-.7-1.71-1.85-2.38,1-1.94,1.14-7.15-1.24-9.07-2.59-2.09-5.08.49-5.08.49a3.06,3.06,0,0,0-4.83.77c-1.4-.92-3.91.92-3.91.92-1.28-.68-2.74.67-3.07,1.93s1.39,11.78,2.32,13A10.77,10.77,0,0,0,47.86,78.79Z" transform="translate(-36.2 -58.67)" fill="#f9b587"/><path d="M55.28,71.51c1.14,1.61,2.36.54,2.36.54-.4.09-1-.46-1.49-1a4.35,4.35,0,0,1-.68-.82h0a2.69,2.69,0,0,1-.42-2.18c.43-1.52,1.19-1.73,1.19-1.73l-1.14-4.7a21.88,21.88,0,0,0,.1,4.59A3.72,3.72,0,0,0,54.88,71a1.29,1.29,0,0,1-1.53.35,3.65,3.65,0,0,1-1.76-2.16L50.1,62.72s.38,7.4,1.82,8.77A2.17,2.17,0,0,0,55.28,71.51Z" transform="translate(-36.2 -58.67)" fill="#f39568"/><path d="M46.27,64.69s1,5.45,1.55,6.55a2.07,2.07,0,0,0,2.9.85,1.57,1.57,0,0,0,.76-1.25l1,.86s-1.88,3.1-4.47.89C46.75,71.48,46.27,64.69,46.27,64.69Z" transform="translate(-36.2 -58.67)" fill="#f39568"/><path d="M47.58,71.91a2.07,2.07,0,0,1-.85,1.78c-.94.59-1.62.3-2-.31a1.24,1.24,0,0,0,1.13,1.06c1.36.23,2.33-1.26,2.58-1.78Z" transform="translate(-36.2 -58.67)" fill="#f39568"/><path d="M49.93,78.79a3.74,3.74,0,0,1-2.48.68c-.1-.42-.17-.74-.22-1A8.72,8.72,0,0,0,49.93,78.79Z" transform="translate(-36.2 -58.67)" fill="#f39568"/><path d="M59,76a7.17,7.17,0,0,1-2.27,1.47,4.2,4.2,0,0,0,2.42-.61Z" transform="translate(-36.2 -58.67)" fill="#f39568"/><path d="M75.76,116.09s-3.85,3.23-6,3.56a8.07,8.07,0,0,0,8.12-2.49Z" transform="translate(-36.2 -58.67)" fill="#f39568"/><path d="M88.09,213.81a3.56,3.56,0,0,0,2.16,1.24c.67,10.62,2.08,19.63,4.19,23.5,6.49,11.93,48.82,12.72,57.63,2.32s6.49-71.31-8.19-79.07c-11-5.8-32.19-4.24-42.24-3.08a10.29,10.29,0,0,0-8.79,7.58c-1.71,6.57-2.69,16.75-3,27.49a6.17,6.17,0,0,0-1.8.57C86.09,195.38,86.87,212,88.09,213.81Z" transform="translate(-36.2 -58.67)" fill="#2c2a40"/><path d="M246.84,154.68s-3.23,12-8.35,25.28c-.77,2-1.59,4-2.44,6.08-3.49,8.28-7.61,16.45-12.05,22-2.37,3-4.83,5.19-7.33,6.29,0,0-7.17,1-12.21-2s-24.66-12.75-27.05-16.94c0,0,7.55-10.71,14.72-11.67,0,0,2.67,1.38,6.44,3.57a147.35,147.35,0,0,1,14.12,9.21l1.34,1s.37-.72,1-2c1.7-3.18,5.33-9.82,9.73-16.83.94-1.5,1.91-3,2.91-4.52.22-.34.45-.67.67-1,7.8-11.58,8.81-20,8.81-20S244.7,152.53,246.84,154.68Z" transform="translate(-36.2 -58.67)" fill="#f9b587"/><path d="M238.49,180c-.77,2-1.59,4-2.44,6.08l-11.26-7.32c.94-1.5,1.91-3,2.91-4.52Z" transform="translate(-36.2 -58.67)" fill="#f39568"/><path d="M224,208.05c-2.37,3-4.83,5.19-7.33,6.29,0,0-7.17,1-12.21-2s-24.66-12.75-27.05-16.94c0,0,7.55-10.71,14.72-11.67,0,0,2.67,1.38,6.44,3.57-.44,1.51-2.18,6.92-5.3,9.53-3.65,3.06,4.78,10.1,12.08,13.25S217.74,213.08,224,208.05Z" transform="translate(-36.2 -58.67)" fill="#f39568"/><path d="M213.74,205.67c.84-3.44-1.05-9.17-1.05-9.17l1.34,1s.37-.72,1-2C215.8,202.89,213.74,205.67,213.74,205.67Z" transform="translate(-36.2 -58.67)" fill="#f39568"/><path d="M180.21,383.9c-6.71-3.85-9.06-7.71-13.09-14.42-2.39-4-4.6-7.32-6-9.38a4.67,4.67,0,0,1-.29-4.78c.06-.12.12-.24.19-.36,1.58-3,4.2-7.19,6.46-7.3l2.55,1.4,8.85,4.81s3.85,8.87,3.69,12.74c-.15,3.38,6.38,11.21,8.35,15.61a9.43,9.43,0,0,1,.4,1,4.68,4.68,0,0,1,.14.64C191.92,387.62,186.92,387.77,180.21,383.9Z" transform="translate(-36.2 -58.67)" fill="#b0b1ca"/><path d="M180.21,383.9c-6.71-3.85-9.06-7.71-13.09-14.42-2.39-4-4.6-7.32-6-9.38a4.67,4.67,0,0,1-.29-4.78c.06-.12.12-.24.19-.36a19.58,19.58,0,0,0,3.72,7.72c3,3.52,7.45,11.45,8.51,13s8.55,8,13.26,8.94c3.82.77,4.52,0,4.81-1.32a4.68,4.68,0,0,1,.14.64C191.92,387.62,186.92,387.77,180.21,383.9Z" transform="translate(-36.2 -58.67)" fill="#2c2a40"/><path d="M180.21,383.9c-6.71-3.85-9.06-7.71-13.09-14.42-2.39-4-4.6-7.32-6-9.38a4.67,4.67,0,0,1-.29-4.78c.06-.12.12-.24.19-.36,1.58-3,4.2-7.19,6.46-7.3l2.55,1.4s-5,4.48-3.4,9.43,6.93,12.41,9.71,15.68,8.67,8.71,14.58,8.05a9.43,9.43,0,0,1,.4,1,4.68,4.68,0,0,1,.14.64C191.92,387.62,186.92,387.77,180.21,383.9Z" transform="translate(-36.2 -58.67)" fill="#2c2a40" opacity="0.2"/><path d="M177.77,406.75c-.15,4.45-3.32,8.55-10.3,7.35-7.88-1.34-10.08-7.88-11.93-11.91s-6.2-17.95-8-23.48a17.47,17.47,0,0,1-.22-8.7,22,22,0,0,1,.94-3.4l2.84.43,16.07,2.44a45.71,45.71,0,0,1,3.69,13.59c.58,6.17,4.71,14.18,6.31,19.52h0a15.54,15.54,0,0,1,.57,2.44A8.91,8.91,0,0,1,177.77,406.75Z" transform="translate(-36.2 -58.67)" fill="#b0b1ca"/><path d="M177.77,406.75c-.15,4.45-3.32,8.55-10.3,7.35-7.88-1.34-10.08-7.88-11.93-11.91s-6.2-17.95-8-23.48a17.47,17.47,0,0,1-.22-8.7,22,22,0,0,1,.94-3.4l2.84.43c-.27,2.79.93,10.69,3.15,14.94,2.77,5.28,4.83,16.9,9.65,22.06s13.46,6.12,13.27-1.44a15.54,15.54,0,0,1,.57,2.44A8.91,8.91,0,0,1,177.77,406.75Z" transform="translate(-36.2 -58.67)" fill="#2c2a40" opacity="0.2"/><path d="M177.77,406.75c-.15,4.45-3.32,8.55-10.3,7.35-7.88-1.34-10.08-7.88-11.93-11.91s-6.2-17.95-8-23.48a17.47,17.47,0,0,1-.22-8.7,110.83,110.83,0,0,0,5,16.74c4,10.27,7.24,19.3,10,22.32S176.17,414.1,177.77,406.75Z" transform="translate(-36.2 -58.67)" fill="#2c2a40"/><path d="M95.44,150.44l6.3,2s-1.06,4.45-2.88,4.45S94.89,155.9,95.44,150.44Z" transform="translate(-36.2 -58.67)" fill="#00497b"/><path d="M180.21,310.25c1.22,3.05.08,6.24-1.27,11.34,5.37-7.82,14.35-20.23,14.35-20.23l-26.17-8.08S178.87,306.89,180.21,310.25Z" transform="translate(-36.2 -58.67)" fill="none"/><path d="M225.33,290.86a8.17,8.17,0,0,0-1.75-3.25c-2.71-3.12-10.71-11.38-26.76-21-20.47-12.25-24.33-11.24-34.56-18.79,0,0-35-3.94-49.37,10-.15.15-.3.29-.44.44a19.32,19.32,0,0,0-3.31,4.49s0,18.15,7.17,24.78,29.67,30.06,31.85,29.85c0,0,.17,3.64,2.85,3.81,0,0-3.69,14.93-2.18,21.3,0,0-2.35,5.37-1.17,9.23s-.34,7.72-.34,10.07,2,12.75,8.56,14.93,13.76-.17,14.26-5.87-.84-9.4-.33-12.59c.13-.86.73-3.4,1.55-6.75,2.41,1.51,6.22,2.65,7.51,2.39,1.67-.33,5.2-10.23,7.38-10.9s9.9-10.24,15.43-15.61C207,322.22,229.25,305.68,225.33,290.86Zm-58.21,2.42,26.17,8.08s-9,12.41-14.35,20.23c1.35-5.1,2.49-8.29,1.27-11.34C178.87,306.89,167.12,293.28,167.12,293.28Z" transform="translate(-36.2 -58.67)" fill="#2c2a40"/><path d="M113.65,259.32l-1,.17c-.09-.55-.16-1-.2-1.26.14-.15.29-.29.44-.44l.49-.07Z" transform="translate(-36.2 -58.67)" fill="#5b5b6c"/><path d="M114,261.56l-1,.18c.2,1.09.4,2.18.62,3.24l1-.2C114.44,263.72,114.24,262.64,114,261.56Zm1.08,5.44-1,.21c.25,1.12.49,2.21.74,3.22l1-.23C115.6,269.19,115.36,268.11,115.12,267Zm1.28,5.39-1,.26c.3,1.14.6,2.21.91,3.18l1-.3C117,274.58,116.7,273.52,116.4,272.39Zm1.61,5.28-.94.34a25.09,25.09,0,0,0,1.32,3.09l.89-.47A26.15,26.15,0,0,1,118,277.67Zm2.47,4.72-.72.69c.49.52,1.27,1.31,2.33,2.36l.71-.72C121.75,283.68,121,282.9,120.48,282.39Zm3.94,3.93-.7.72,2.36,2.29.71-.72Zm4,3.87-.7.73c.76.74,1.56,1.5,2.38,2.28l.69-.73Zm4,3.85-.69.73,2.39,2.27.69-.73Zm4.05,3.83-.69.73,2.41,2.25.68-.73Zm4.07,3.8-.68.74,2.42,2.23.68-.74Zm4.1,3.77-.67.74,2.45,2.21.67-.75Zm4.15,3.7-.66.76c1,.88,1.86,1.6,2.54,2.14l.63-.78C150.67,310.72,149.82,310,148.82,309.14Zm4.28,3.33-.41.92c.73.33,1.16,1,1.43,2.28l1-.21A3.86,3.86,0,0,0,153.1,312.47Zm2.35,5.29-1,.12a18.67,18.67,0,0,0,.59,3.31l1-.28A19,19,0,0,1,155.45,317.76Zm-.3,5.51a31.73,31.73,0,0,1-.45,3.21l1,.17c.25-1.35.4-2.44.47-3.3Zm-.88,5.43-.53,2.56-.14.66,1,.2.15-.66.53-2.56Zm-1.13,5.45c-.26,1.27-.45,2.3-.61,3.25l1,.17c.16-.94.35-2,.6-3.22Zm.05,5.65-1-.13a23.91,23.91,0,0,0-.21,2.91c0,.15,0,.3,0,.45l1,0v-.42A21.67,21.67,0,0,1,153.19,339.8Zm-.05,5.46-1,0c0,.56,0,1.14,0,1.73s0,1,0,1.53l1,0c0-.54,0-1.05,0-1.55S153.16,345.83,153.14,345.26Zm-1.1,5.56c0,.59-.07,1.17-.1,1.75s-.07,1-.1,1.52l1,.06c0-.5.06-1,.09-1.52s.07-1.17.11-1.76Zm.74,8.31c0-.51,0-1,0-1.62,0-.37,0-.73,0-1.1l-1,0c0,.38,0,.75,0,1.13,0,.59,0,1.14,0,1.68,0,.15,0,.32,0,.49h1C152.79,359.49,152.78,359.31,152.78,359.13Zm-1.13,2.77c-.1.94-.26,2-.48,3.21l1,.18c.22-1.21.39-2.32.49-3.29Zm-.92,5.43c-.22,1-.47,2.08-.75,3.18l1,.25c.28-1.11.53-2.2.75-3.22Z" transform="translate(-36.2 -58.67)" fill="#5b5b6c"/><path d="M163.16,286.4l3.12,1,.33-.95-3.13-1.05Z" transform="translate(-36.2 -58.67)" fill="#5b5b6c"/><path d="M171.87,288.27l-3.11-1-.32.95,3.1,1.05Z" transform="translate(-36.2 -58.67)" fill="#5b5b6c"/><polygon points="141.98 269.73 142.8 270.31 144.69 267.63 143.86 267.05 141.98 269.73" fill="#5b5b6c"/><rect x="174.7" y="331.38" width="3.28" height="1.01" transform="translate(-232.78 226.53) rotate(-54.88)" fill="#5b5b6c"/><path d="M173.24,335.41c0,.55,0,1.11,0,1.67l1.2-1.71-.82-.58Z" transform="translate(-36.2 -58.67)" fill="#5b5b6c"/><path d="M177.12,290.05,174,289l-.33.95L176.8,291Z" transform="translate(-36.2 -58.67)" fill="#5b5b6c"/><path d="M192.85,295.54l-3.09-1.1-.33.94,3.08,1.11Z" transform="translate(-36.2 -58.67)" fill="#5b5b6c"/><path d="M182.37,291.86l-3.1-1.07-.32.95,3.09,1.07Z" transform="translate(-36.2 -58.67)" fill="#5b5b6c"/><path d="M191.62,310.7l.74.68c.67-.73,1.45-1.59,2.2-2.44l-.75-.66C193.06,309.12,192.28,310,191.62,310.7Z" transform="translate(-36.2 -58.67)" fill="#5b5b6c"/><path d="M195.28,306.57l.77.65c.82-1,1.49-1.83,2-2.61l-.82-.59C196.74,304.78,196.08,305.61,195.28,306.57Z" transform="translate(-36.2 -58.67)" fill="#5b5b6c"/><path d="M198.07,297.51c-.73-.3-1.77-.7-3.08-1.19l-.35.95c1.3.48,2.33.87,3.05,1.17Z" transform="translate(-36.2 -58.67)" fill="#5b5b6c"/><path d="M200.09,299.14l-1,.33a1.43,1.43,0,0,1,.07.48,5.1,5.1,0,0,1-.74,2.22l.88.48a5.82,5.82,0,0,0,.87-2.7A2.33,2.33,0,0,0,200.09,299.14Z" transform="translate(-36.2 -58.67)" fill="#5b5b6c"/><polygon points="145.17 265.19 146 265.77 147.88 263.1 147.06 262.51 145.17 265.19" fill="#5b5b6c"/><path d="M187.91,314.85l.77.65c.56-.66,1.23-1.42,2.16-2.44l-.75-.68C189.16,313.41,188.48,314.18,187.91,314.85Z" transform="translate(-36.2 -58.67)" fill="#5b5b6c"/><path d="M186.17,317.06l-1.6,2.27.82.58,1.6-2.27.29-.4-.81-.6Z" transform="translate(-36.2 -58.67)" fill="#5b5b6c"/><path d="M184.19,293.55l3.09,1.08.34-.95-3.1-1.08Z" transform="translate(-36.2 -58.67)" fill="#5b5b6c"/><path d="M196.82,186.22c-1.18,5.25-6.16,10-10.12,13.11h0a49.94,49.94,0,0,1-5.15,3.54l-2.35-2-7.3-6.28-3.5,7.23c-3.51,7.23-2.54,25.73-2.94,31-.36,4.6,6.73,15.36,8.15,19a1.87,1.87,0,0,1,.22,1.11c-.59,1.51-18.1,3.78-29.49,0s-34.44,10-35.2,9.77-1.41-33.93-4.94-48.9,2.35-54.24,2.35-54.24l-4.74-1.5-2.14-.68c-6.21.34-4.23-7-4.23-7s.21,7.38,4,5.46c1.69-.86,1.62-5.87,1-11.15-.73-6.47-2.25-13.34-2.27-13.44s1.21.32,3,.83c6,1.68,19.18,5.6,24.17,8.57,1.5.89,5.13,3.49,7.93,5.54C135.34,147.76,137,149,137,149c9.88,5.45,13,5.09,21.1,7.48l1.07.31c9.78,2.91,21,6.36,25.13,13.36,3.21,5.41,8.62,11.71,11.16,14.56C196.28,185.64,196.82,186.22,196.82,186.22Z" transform="translate(-36.2 -58.67)" fill="#3a6bea"/><path d="M101.81,158.08l-2.14-.68c-6.21.34-4.23-7-4.23-7s.21,7.38,4,5.46c1.69-.86,1.62-5.87,1-11.15-.73-6.47-2.25-13.34-2.27-13.44s1.21.32,3,.83C102.66,138.17,105.34,151.51,101.81,158.08Z" transform="translate(-36.2 -58.67)" fill="#2c2a40"/><path d="M196.82,186.22c-1.18,5.25-6.16,10-10.12,13.11h0a49.94,49.94,0,0,1-5.15,3.54l-2.35-2c8-5.41,13.63-12.2,15.83-16.62C195.89,185.2,196.82,186.22,196.82,186.22Z" transform="translate(-36.2 -58.67)" fill="#2c2a40"/><path d="M157.22,156.22c-1.57,4.19-4,8-16.27,5-13.86-3.35-6.29-13.95-6.29-13.95,2.07,1.5,2.3,1.69,2.3,1.69,9.88,5.45,10.14,4.28,18.2,6.67Z" transform="translate(-36.2 -58.67)" fill="#2c2a40"/><path d="M186.7,199.33a49.94,49.94,0,0,1-5.15,3.54l-9.65-8.3-3.5,7.23c-3.51,7.23-2.54,25.73-2.94,31-6.92-16.44,5.18-46.57,5.18-46.57C174.14,193,186.49,199.18,186.7,199.33Z" transform="translate(-36.2 -58.67)" fill="#2c2a40" opacity="0.2"/><path d="M173.83,253c-.59,1.51-18.1,3.78-29.49,0s-34.44,10-35.2,9.77-1.41-33.93-4.94-48.9,2.35-54.24,2.35-54.24l-6.88-2.18c-6.21.34-4.23-7-4.23-7s.21,7.38,4,5.46c1.69-.86,1.62-5.87,1-11.15,0,0,12,8.63,18.86,10.64,0,0-1.93,12.34-3.77,28.4s-.67,27.11,3,38.34,11.93,22,23.37,23.19,22.58,9.18,31.69,6.52A1.87,1.87,0,0,1,173.83,253Z" transform="translate(-36.2 -58.67)" fill="#2c2a40" opacity="0.2"/><path d="M177,118.48h0c-.29.28-.48.43-.48.43l-37.66,13.18s-5.63-2.59-5.3-12.43a12.94,12.94,0,0,1,7.35-11.61,9.65,9.65,0,0,1-.82-.94.68.68,0,0,1,.52-1.1,8.05,8.05,0,0,1,1.25.06,10.26,10.26,0,0,1-.21-1.36.69.69,0,0,1,1-.63,6.22,6.22,0,0,1,1.65,1.38l0,0a21,21,0,0,1,13.72-6.16c2.83-.16,6.29-.41,9.72-.79,6.59-.73,11.72.45,13.65-1.53C181.47,96.93,189.59,110.46,177,118.48Z" transform="translate(-36.2 -58.67)" fill="#2c2a40"/><path d="M176.26,116.09s3.85,9-2.53,14.38C173.73,130.47,172.78,119.68,176.26,116.09Z" transform="translate(-36.2 -58.67)" fill="#2c2a40"/><path d="M153.87,157.85l-.2.16a11.44,11.44,0,0,1-3.67,1.84c-3.27,1-10.49-2.16-13.63-3.68a1.81,1.81,0,0,1-.91-2.26,41.06,41.06,0,0,0,2.59-14.61,41,41,0,0,1,3.08-14.65c-.78,3.6.58,8.81,2.68,14A129.09,129.09,0,0,0,153.87,157.85Z" transform="translate(-36.2 -58.67)" fill="#f9b587"/><path d="M171.24,135a13.67,13.67,0,0,1-2.45,7.88l-5,7.12a7.54,7.54,0,0,1-8.29,2.9A25.52,25.52,0,0,1,143.88,146c-6.55-7.17-3.62-19.18-3.62-19.18s3.67-12,14.92-14.13,20.19,5.83,20.19,5.83l-.93,8.81a11.7,11.7,0,0,1-.24,1.46,13.54,13.54,0,0,1-1.9,4.54Z" transform="translate(-36.2 -58.67)" fill="#f9b587"/><path d="M165.23,123.92s-4.31-7-9.46-2.92l.4,1.45s4.8-2.47,8.31,3Z" transform="translate(-36.2 -58.67)" fill="#2c2a40"/><path d="M171.24,135a13.51,13.51,0,0,1-.71,4.42c-1-1.17-3.28-2.5-8.38-3.05,0,0,3.18-1.49,5.84-.89a1.08,1.08,0,0,0,1.32-1.14l-.35-4.88a3.19,3.19,0,0,1,2-.84,20.56,20.56,0,0,1,3.28.22,13.54,13.54,0,0,1-1.9,4.54Z" transform="translate(-36.2 -58.67)" fill="#f39568"/><path d="M174.29,127.37a14.53,14.53,0,0,0-3.62-.18l-.54,1.43a10.45,10.45,0,0,1,3.76.31.87.87,0,0,0,1.13-.6v0A.84.84,0,0,0,174.29,127.37Z" transform="translate(-36.2 -58.67)" fill="#2c2a40"/><path d="M167.24,141.43l-13.19-4.61s-.25,7.67,7,9.26C166.69,147.33,167.24,141.43,167.24,141.43Z" transform="translate(-36.2 -58.67)" fill="#fff"/><path d="M154.77,152.41l-.61,5.18-.29.26-.2.16c-1.94-.89-10-4.95-10.86-10.92a15.6,15.6,0,0,1,1-8.4,9.21,9.21,0,0,1,1.22-2.16C146.65,149.3,154.77,152.41,154.77,152.41Z" transform="translate(-36.2 -58.67)" fill="#f39568"/><path d="M144.23,125.7s-1.35-5.48-5.6-4.22-4.92,12.84,1,12.1S144.23,125.7,144.23,125.7Z" transform="translate(-36.2 -58.67)" fill="#f9b587"/><path d="M156.94,112.43s-2.49.26-2.79,3.41-.83,8.49-4.88,8.38-4.44,4.8-4.44,4.8l-2.89-.7s-.29-8.74,1.64-11.71S153.62,109.33,156.94,112.43Z" transform="translate(-36.2 -58.67)" fill="#2c2a40"/><path d="M156.48,126.25a4,4,0,0,1,6.78,2.81S161.7,125.18,156.48,126.25Z" transform="translate(-36.2 -58.67)" fill="#2c2a40"/><path d="M169.54,131.12a2.59,2.59,0,0,1,2.13-.16c1.14.45.73,1.94.73,1.94S172.13,131,169.54,131.12Z" transform="translate(-36.2 -58.67)" fill="#2c2a40"/><rect x="206.1" y="141.16" width="54.7" height="36.22" transform="translate(84.98 -158.75) rotate(32.29)" fill="#2c2a40"/><polygon points="230.04 99.89 210.69 130.51 164.45 101.29 166.45 101.15 229.21 96.72 229.77 98.86 229.77 98.86 230.04 99.89" fill="#2c2a40"/><path d="M266,157.53l-18.5,29.36-1.4-.88L233.4,156.74l32-1.35Z" transform="translate(-36.2 -58.67)" fill="#fff"/><rect x="207.48" y="138.62" width="52.31" height="36.22" transform="translate(83.65 -159.24) rotate(32.29)" fill="#2c2a40"/><path d="M251,143.19h0A3.36,3.36,0,0,0,249,141.6c0-.69-.68-1.33-1.51-1.69a2.3,2.3,0,0,0-1.53-.09c-.23-.84-1.13-1.5-1.74-1.31l-.39.08a1.91,1.91,0,0,0-.43-1h0a2.83,2.83,0,0,0-2.58-1.44s-5.76,1-7.12,5-3.11,8.6-1.07,8.31a3.6,3.6,0,0,0,1.92-1.46c-.72,2.41-1,4.27.34,4.09.73-.1,1.61-1,2.43-2.15-.55,2.06-.65,3.55.54,3.39s2.45-1.93,3.5-3.93c-.68,2.34-.9,4.11.39,3.93,1.58-.22,2.69-3.43,4.27-5.88,1.86-2.87,1.79-1.18,3.8-1.95l1.46.92A3.67,3.67,0,0,0,251,143.19Z" transform="translate(-36.2 -58.67)" fill="#f9b587"/><path d="M134.66,147.27s1.6-13.29-3.91-14.37c-10.69-2.1-22.57,13.74-29,30.21-9.69,24.79,1.51,43.4,1.51,43.4l.2-9.49s-.88-20.65,8.68-37,16.23-20.73,17.62-19.59,1.45,4.29,1.45,4.29Z" transform="translate(-36.2 -58.67)" fill="#2c2a40"/><path d="M159.13,156.75s3.2-8.27,13.45-4.58c9,3.22,8,12.78,6.66,25.37s-13.57,43.7-13.57,43.7-.52-11,.86-17.51c0,0,8.39-27.66,5.37-38.61s-9.75-7.46-9.75-7.46Z" transform="translate(-36.2 -58.67)" fill="#2c2a40"/></svg>