<?xml version="1.0" standalone="no"?>
<!DOCTYPE svg PUBLIC "-//W3C//DTD SVG 20010904//EN"
 "http://www.w3.org/TR/2001/REC-SVG-20010904/DTD/svg10.dtd">
<svg version="1.0" xmlns="http://www.w3.org/2000/svg"
 width="300.000000pt" height="300.000000pt" viewBox="0 0 300.000000 300.000000"
 preserveAspectRatio="xMidYMid meet">

<g transform="translate(0.000000,300.000000) scale(0.100000,-0.100000)"
fill="#000000" stroke="none">
<path d="M915 2242 c-37 -23 -85 -91 -85 -120 0 -33 33 -92 72 -129 l34 -33
197 -7 c181 -6 199 -8 208 -25 22 -42 2 -46 -244 -50 -266 -4 -277 -6 -277
-68 l0 -40 263 0 c244 0 264 1 295 20 76 47 95 145 42 218 -40 55 -70 62 -277
62 -143 0 -174 3 -187 16 -18 18 -19 23 -6 44 8 13 80 15 530 18 l520 3 0 40
c0 69 3 69 -562 69 -460 0 -495 -1 -523 -18z"/>
<path d="M1500 2000 c0 -123 18 -166 83 -205 43 -24 48 -25 236 -25 l192 0 -3
53 -3 52 -180 5 c-99 3 -186 9 -192 13 -9 6 -13 39 -13 108 l0 99 -60 0 -60 0
0 -100z"/>
<path d="M820 1670 l0 -50 598 2 597 3 3 48 3 47 -600 0 -601 0 0 -50z"/>
</g>
</svg>
