<svg xmlns="http://www.w3.org/2000/svg" viewBox="0 0 120.1 64"><defs><style>.cls-1{fill:#fff;}</style></defs><title>Asset 2</title><g id="Layer_2" data-name="Layer 2"><g id="Layer_1-2" data-name="Layer 1"><path class="cls-1" d="M9.5,1.8C5.8,4.1,1,10.9,1,13.8,1,17.1,4.3,23,8.2,26.7L11.6,30l19.7.7c18.1.6,19.9.8,20.8,2.5,2.2,4.2.2,4.6-24.4,5C1.1,38.6,0,38.8,0,45v4H26.3c24.4,0,26.4-.1,29.5-2A15,15,0,0,0,60,25.2C56,19.7,53,19,32.3,19c-14.3,0-17.4-.3-18.7-1.6-1.8-1.8-1.9-2.3-.6-4.4.8-1.3,8-1.5,53-1.8l52-.3v-4C118,0,118.3,0,61.8,0,15.8,0,12.3.1,9.5,1.8Z"/><path class="cls-1" d="M68,26c0,12.3,1.8,16.6,8.3,20.5,4.3,2.4,4.8,2.5,23.6,2.5h19.2l-.3-5.3-.3-5.2-18-.5c-9.9-.3-18.6-.9-19.2-1.3-.9-.6-1.3-3.9-1.3-10.8V16H68Z"/><path class="cls-1" d="M0,59v5l59.8-.2,59.7-.3.3-4.8.3-4.7H0Z"/></g></g></svg>