<svg xmlns="http://www.w3.org/2000/svg" viewBox="0 0 120 50"><defs><style>.cls-1{fill:#5d4ce6;}</style></defs><title>StuTea</title><g id="Layer_2" data-name="Layer 2"><g id="Layer_1-2" data-name="Layer 1"><path class="cls-1" d="M9.66,1.84C5.9,4.18,1,11.12,1,14.08c0,3.37,3.35,9.39,7.32,13.16l3.46,3.37,20,.72c18.41.61,20.24.81,21.15,2.55,2.24,4.28.21,4.69-24.81,5.1C1.12,39.39,0,39.59,0,45.92V50H26.75c24.81,0,26.84-.1,30-2a15.34,15.34,0,0,0,5.08-21c-.25-.41-.52-.82-.81-1.21C57,20.1,53.9,19.39,32.85,19.39c-14.54,0-17.7-.31-19-1.63-1.83-1.84-1.93-2.35-.61-4.49.81-1.33,8.14-1.54,53.9-1.84L120,11.12V7c0-7,.31-7-57.15-7C16.07,0,12.51.1,9.66,1.84Z"/><path class="cls-1" d="M67.88,26.53c0,12.55,1.79,16.94,8.24,20.92C80.38,49.9,80.88,50,99.52,50h19l-.3-5.41-.29-5.3-17.85-.51c-9.82-.31-18.45-.92-19.05-1.33-.89-.61-1.28-4-1.28-11V16.33H67.88Z"/></g></g></svg>