<svg id="Layer_1" data-name="Layer 1" xmlns="http://www.w3.org/2000/svg" xmlnsXlink="http://www.w3.org/1999/xlink" viewBox="0 0 50 50"><defs><clipPath id="clip-path"><polygon points="14.13 34.38 32.26 34.38 32.26 16 14.13 16 14.13 34.38 14.13 34.38" fill="none" clip-rule="evenodd"/></clipPath></defs><circle cx="25" cy="25" r="25"/><polyline points="15.17 17.04 17.86 17.04 21.16 28.41 30.96 28.43" fill="none" stroke="#fff" stroke-linecap="round" stroke-linejoin="round"/><g clip-path="url(#clip-path)"><path d="M20.42,24.8h9.49l1-3.36c.25-.9.49-1.46.19-1.8s-.27-.23-2-.24l-9.46,0" fill="#fff" fill-rule="evenodd"/><path d="M20.42,24.8h9.49l1-3.36c.25-.9.49-1.46.19-1.8s-.27-.23-2-.24l-9.46,0" fill="none" stroke="#fff" stroke-linecap="round" stroke-linejoin="round"/><g clip-path="url(#clip-path)"><path d="M19.57,32.57a1.81,1.81,0,1,1,1.81,1.81,1.81,1.81,0,0,1-1.81-1.81Z" fill="#fff" fill-rule="evenodd"/><g clip-path="url(#clip-path)"><path d="M26.82,32.57a1.81,1.81,0,1,1,1.81,1.81,1.81,1.81,0,0,1-1.81-1.81Z" fill="#fff" fill-rule="evenodd"/></g></g></g><polygon points="28.44 24 19.84 24 19 19 27.6 19 28.44 24" fill="#fff" stroke="#fff" stroke-miterlimit="10" stroke-width="0.25" fill-rule="evenodd"/></svg>