<svg id="Layer_1" data-name="Layer 1" xmlns="http://www.w3.org/2000/svg" xmlnsXlink="http://www.w3.org/1999/xlink" viewBox="0 0 50 50"><defs><clipPath id="clip-path" transform="translate(0)"><polygon points="0 50 50 50 50 0 0 0 0 50 0 50" fill="none" clip-rule="evenodd"/></clipPath></defs><path d="M0,24.51A24.75,24.75,0,0,1,25,0h0A24.75,24.75,0,0,1,50,24.51v1A24.75,24.75,0,0,1,25,50h0A24.75,24.75,0,0,1,0,25.49Z" transform="translate(0)" fill-rule="evenodd"/><polyline points="15.33 25.12 24.87 15.76 34.42 25.12" fill="none" stroke="#fff" stroke-linecap="round" stroke-linejoin="round"/><g clip-path="url(#clip-path)"><path d="M17.09,23.86a1.21,1.21,0,0,1,1.22-1.2H31.44a1.21,1.21,0,0,1,1.22,1.2v8.93A1.21,1.21,0,0,1,31.44,34H18.31a1.21,1.21,0,0,1-1.22-1.2Z" transform="translate(0)" fill="#fff" fill-rule="evenodd"/><g clip-path="url(#clip-path)"><polygon points="24.83 16.01 17.34 23.13 32.41 23.15 24.83 16.01 24.83 16.01 24.83 16.01" fill="#fff" fill-rule="evenodd"/></g></g></svg>