<svg id="Layer_1" data-name="Layer 1" xmlns="http://www.w3.org/2000/svg" viewBox="0 0 41.53 50.24"><path d="M24.94-.12A5.07,5.07,0,0,1,30,4.93a5,5,0,0,1-.87,2.83l-.06.07.95.24a16.11,16.11,0,0,1,11.32,14l.05,1.21h0V34.73h0l.15,1.07c.87,5.1,2.83,4.59,4.19,7.18l-12.49-.07-.05.47a8.53,8.53,0,0,1-16.68,0l-.06-.56L4.24,42.76C5.8,40,7.94,40,8.93,34.47H9V23.29H9l.05-1.21a16.11,16.11,0,0,1,11.32-14L20.88,8l-.17-.19a5,5,0,0,1-.87-2.83,5.07,5.07,0,0,1,5.1-5Z" transform="translate(-4.24 0.12)" fill-rule="evenodd" fill="gray"/></svg>