<svg id="Layer_1" data-name="Layer 1" xmlns="http://www.w3.org/2000/svg" viewBox="0 0 50 50"><circle cx="25" cy="25" r="25" fill="gray"/><path d="M25,25.17a8.43,8.43,0,0,1,8.37,8.49v.11H16.63v-.11A8.43,8.43,0,0,1,25,25.17Z" fill="#fff" fill-rule="evenodd"/><path d="M20.47,20.87a4.65,4.65,0,0,1,4.65-4.64h0a4.65,4.65,0,0,1,4.65,4.64v.24a4.66,4.66,0,0,1-4.65,4.65h0a4.65,4.65,0,0,1-4.65-4.65Z" fill="#fff" fill-rule="evenodd"/><path d="M20.47,20.87a4.65,4.65,0,0,1,4.65-4.64h0a4.65,4.65,0,0,1,4.65,4.64v.24a4.66,4.66,0,0,1-4.65,4.65h0a4.65,4.65,0,0,1-4.65-4.65Z" fill="none" stroke="#fff" stroke-miterlimit="8" stroke-width="1.5"/></svg>