<svg width="160" height="160" viewBox="0 0 160 160" fill="none" xmlns="http://www.w3.org/2000/svg">
<rect width="160" height="160" fill="#F6F3FF"/>
<path d="M128.407 68.9968L84.8656 105.131C81.8722 107.615 77.5344 107.615 74.5411 105.131L31 68.9968L74.5412 32.863C77.5346 30.379 81.8724 30.379 84.8658 32.863L128.407 68.9968Z" fill="#4421AA"/>
<path d="M84.8653 32.8631C83.3688 31.621 81.536 31 79.7031 31V106.994C81.536 106.994 83.3688 106.373 84.8653 105.13L128.407 68.9969L84.8653 32.8631Z" fill="#4421AA"/>
<path d="M119.656 78.3233V50.9798C119.656 48.8783 117.953 47.1748 115.851 47.1748H43.5569C41.4554 47.1748 39.752 48.8783 39.752 50.9798V78.3233L74.8331 107.549C77.6548 109.9 81.7529 109.9 84.5749 107.549L119.656 78.3233Z" fill="white"/>
<path d="M115.85 47.1748H79.7031V109.312C81.433 109.312 83.1632 108.724 84.574 107.549L119.655 78.3233V50.9798C119.655 48.8783 117.952 47.1748 115.85 47.1748V47.1748Z" fill="white"/>
<path d="M79.5489 56.751C75.9552 56.751 72.4422 57.8166 69.4542 59.8132C66.4662 61.8097 64.1373 64.6475 62.762 67.9676C61.3868 71.2877 61.027 74.9411 61.728 78.4658C62.4291 81.9904 64.1597 85.228 66.7008 87.7691C69.2419 90.3102 72.4795 92.0407 76.0041 92.7418C79.5288 93.4429 83.1821 93.0831 86.5023 91.7079C89.8224 90.3326 92.6602 88.0037 94.6567 85.0157C96.6533 82.0276 97.7189 78.5147 97.7189 74.921C97.7134 70.1037 95.7973 65.4853 92.391 62.0789C88.9846 58.6726 84.3662 56.7565 79.5489 56.751V56.751ZM88.8935 72.0657L78.5729 82.3811C78.3319 82.6224 78.0456 82.8139 77.7305 82.9445C77.4153 83.0751 77.0776 83.1423 76.7365 83.1423C76.3953 83.1423 76.0576 83.0751 75.7425 82.9445C75.4273 82.8139 75.1411 82.6224 74.9 82.3811L70.2043 77.6932C69.7176 77.2051 69.4447 76.5437 69.4457 75.8544C69.4467 75.1651 69.7214 74.5044 70.2095 74.0177C70.6976 73.5309 71.3591 73.2581 72.0484 73.259C72.7377 73.26 73.3983 73.5348 73.8851 74.0229L76.7404 76.8781L85.2128 68.3979C85.6991 67.9099 86.3595 67.635 87.0485 67.6337C87.7376 67.6325 88.3989 67.9051 88.887 68.3915C89.3751 68.8778 89.65 69.5382 89.6512 70.2272C89.6524 70.9163 89.3799 71.5776 88.8935 72.0657V72.0657Z" fill="#7545FF"/>
<path d="M128.407 68.9971L84.8656 105.131C81.8722 107.615 77.5344 107.615 74.5411 105.131L31 68.9971V120.323C31 124.788 34.6191 128.407 39.0836 128.407H120.323C124.788 128.407 128.407 124.788 128.407 120.323V68.9971Z" fill="#7545FF"/>
<path d="M84.8653 105.131C83.3686 106.373 81.5358 106.994 79.7031 106.994V128.407H120.323C124.787 128.407 128.407 124.788 128.407 120.323V68.9971L84.8653 105.131Z" fill="#7545FF"/>
<path d="M84.8669 105.131C81.8735 107.615 77.5357 107.615 74.5423 105.131L69.964 101.331L33.5947 126.255C35.0364 127.59 36.9648 128.407 39.0849 128.407H120.324C122.444 128.407 124.373 127.59 125.814 126.255L89.4454 101.331L84.8669 105.131Z" fill="#7545FF"/>
<path d="M125.813 126.255L89.4438 101.331L84.8653 105.13C83.3686 106.372 81.5358 106.994 79.7031 106.994V128.407H120.323C122.443 128.407 124.371 127.59 125.813 126.255Z" fill="#7545FF"/>
</svg>