<svg id="Layer_1" data-name="Layer 1" xmlns="http://www.w3.org/2000/svg" viewBox="0 0 50 50"><circle cx="25" cy="25" r="25" fill="#d9d9d9"/><path d="M25,25.17a8.21,8.21,0,0,1,8.15,8.27v.11H16.85v-.11A8.21,8.21,0,0,1,25,25.17Z" fill="#fff" fill-rule="evenodd"/><path d="M20.58,21a4.53,4.53,0,0,1,4.53-4.53h0A4.53,4.53,0,0,1,29.64,21v.23a4.53,4.53,0,0,1-4.53,4.53h0a4.53,4.53,0,0,1-4.53-4.53Z" fill="#fff" fill-rule="evenodd"/><path d="M20.58,21a4.53,4.53,0,0,1,4.53-4.53h0A4.53,4.53,0,0,1,29.64,21v.23a4.53,4.53,0,0,1-4.53,4.53h0a4.53,4.53,0,0,1-4.53-4.53Z" fill="none" stroke="#d9d9d9" stroke-miterlimit="8" stroke-width="1.5"/></svg>